<?xml version="1.0" standalone="no"?>
<!DOCTYPE svg PUBLIC "-//W3C//DTD SVG 20010904//EN"
 "http://www.w3.org/TR/2001/REC-SVG-20010904/DTD/svg10.dtd">
<svg version="1.0" xmlns="http://www.w3.org/2000/svg"
 width="512.000000pt" height="512.000000pt" viewBox="0 0 512.000000 512.000000"
 preserveAspectRatio="xMidYMid meet">
<metadata>
Created by potrace 1.14, written by Peter Selinger 2001-2017
</metadata>
<g transform="translate(0.000000,512.000000) scale(0.100000,-0.100000)"
fill="#000000" stroke="none">
<path d="M1848 5028 c-47 -12 -120 -76 -144 -125 -18 -36 -19 -79 -24 -752 -4
-625 -7 -714 -20 -716 -8 -1 -47 -5 -86 -8 -39 -4 -77 -9 -85 -11 -8 -3 -32
-8 -54 -11 -163 -23 -439 -137 -605 -250 -411 -279 -666 -686 -734 -1175 -19
-130 -14 -397 9 -510 3 -14 7 -34 9 -45 86 -428 348 -817 716 -1062 193 -128
387 -207 636 -258 138 -29 470 -26 609 5 22 5 51 11 65 14 103 20 262 79 383
141 77 39 233 136 247 154 3 3 23 19 45 35 115 84 307 309 398 464 77 132 154
325 182 457 8 37 24 120 30 155 17 108 13 388 -9 505 -10 54 -17 90 -22 108
-5 16 24 17 500 17 l506 0 0 80 0 80 -183 0 -182 0 -80 80 -79 79 500 3 499 3
51 34 c28 18 64 54 80 80 l29 46 3 1090 c3 1226 7 1156 -71 1234 -75 76 34 71
-1611 70 -933 -1 -1485 -5 -1508 -11z"/>
</g>
</svg>
